# xmcd
#
# Track frame offsets: 
#        150
#        3075
#        46207
#        82792
#        114732
#        144530
#        175995
#
# Disc length: 2771 seconds
#
# Revision: 1
# Processed by: cddbd v1.5.2PL0 Copyright (c) Steve Scherf et al.
# Submitted via: ExactAudioCopy v0.99pb5
#
DISCID=4c0ad107
DTITLE=Arne Domnerus - Jazz At The Pawnshop [CD1)
DYEAR=1900
DGENRE=Jazz
TTITLE0=Introduction
TTITLE1=Limehouse Blues
TTITLE2=I'm Confessin'
TTITLE3=High Life
TTITLE4=Struttin' With Some Barbecue
TTITLE5=Jeep's Blues
TTITLE6=Stuffy
EXTD=
EXTT0=
EXTT1=
EXTT2=
EXTT3=
EXTT4=
EXTT5=
EXTT6=
PLAYORDER=
